# AST/ASF file generated using VICON BodyLanguage
# -----------------------------------------------
:version 1.10
:name VICON
:units
  mass 1.0
  length 0.45
  angle deg
:documentation
   .ast/.asf automatically generated from VICON data using
   VICON BodyBuilder and BodyLanguage model FoxedUp or BRILLIANT.MOD
:root
   order TX TY TZ RX RY RZ
   axis XYZ
   position 0 0 0  
   orientation 0 0 0 
:bonedata
  begin
     id 1 
     name lhipjoint
     direction 0.558404 -0.748506 0.357664 
     length 2.4234 
     axis 0 0 0  XYZ
  end
  begin
     id 2 
     name lfemur
     direction 0.34202 -0.939693 0  
     length 7.14567  
     axis 0 0 20  XYZ
    dof rx ry rz
    limits (-160.0 20.0)
           (-70.0 70.0)
           (-60.0 70.0)
  end
  begin
     id 3 
     name ltibia
     direction 0.34202 -0.939693 0   
     length 8.13956   
     axis 0 0 20   XYZ
    dof rx
    limits (-10.0 170.0)
  end
  begin
     id 4 
     name lfoot
     direction 0.0791314 -0.217412 0.972867   
     length 2.00134   
     axis -90 7.62852e-016 20   XYZ
    dof rx rz
    limits (-45.0 90.0)
           (-70.0 20.0)
  end
  begin
     id 5 
     name ltoes
     direction 1.53547e-011 -4.21922e-011 1   
     length 1.00735   
     axis -90 7.62852e-016 20   XYZ
    dof rx
    limits (-90.0 20.0)
  end
  begin
     id 6 
     name rhipjoint
     direction -0.496392 -0.78327 0.374276   
     length 2.31584  
     axis 0 0 0  XYZ 
  end
  begin
     id 7 
     name rfemur
     direction -0.34202 -0.939693 0   
     length 7.47417   
     axis 0 0 -20   XYZ
    dof rx ry rz
    limits (-160.0 20.0)
           (-70.0 70.0)
           (-70.0 60.0)
  end
  begin
     id 8 
     name rtibia
     direction -0.34202 -0.939693 0   
     length 7.69071   
     axis 0 0 -20   XYZ
    dof rx
    limits (-10.0 170.0)
 end
 begin
     id 9 
     name rfoot
     direction -0.103069 -0.28318 0.953512   
     length 2.16135  
     axis -90 -7.62852e-016 -20   XYZ
    dof rx rz
    limits (-45.0 90.0)
           (-20.0 70.0)
  end
  begin
     id 10 
     name rtoes
     direction -1.53581e-011 -4.21904e-011 1   
     length 1.07867   
     axis -90 -7.62852e-016 -20   XYZ
    dof rx
    limits (-90.0 20.0)
  end
  begin
     id 11 
     name lowerback
     direction -0.0258961 0.994776 -0.0987407   
     length 2.19412   
     axis 0 0 0   XYZ
    dof rx ry rz
    limits (-20.0 45.0)
           (-30.0 30.0)
           (-30.0 30.0)
  end
  begin
     id 12 
     name upperback
     direction 0.0402454 0.999185 0.00320666   
     length 2.18445   
     axis 0 0 0   XYZ
    dof rx ry rz
    limits (-20.0 45.0)
           (-30.0 30.0)
           (-30.0 30.0)
  end
  begin
     id 13 
     name thorax
     direction 0.0519376 0.997415 0.0496558   
     length 2.21487   
     axis 0 0 0   XYZ
    dof rx ry rz
    limits (-20.0 45.0)
           (-30.0 30.0)
           (-30.0 30.0)
  end
  begin
     id 14 
     name lowerneck
     direction -0.0921276 0.983211 0.157506   
     length 1.61201   
     axis 0 0 0   XYZ
    dof rx ry rz
    limits (-20.0 45.0)
           (-30.0 30.0)
           (-30.0 30.0)
  end
  begin
     id 15 
     name upperneck
     direction 0.0820814 0.98162 -0.172292   
     length 1.65275   
     axis 0 0 0   XYZ
    dof rx ry rz
    limits (-20.0 45.0)
           (-30.0 30.0)
           (-30.0 30.0)
  end
  begin
     id 16
     name head
     direction 0.0336554 0.996413 -0.0776455  
     length 1.66415  
     axis 0 0 0   XYZ
    dof rx ry rz
    limits (-20.0 45.0)
           (-30.0 30.0)
           (-30.0 30.0)
  end
  begin
     id 17 
     name lclavicle
     direction 0.94696 0.284418 -0.149576  
     length 3.41447  
     axis 0 0 0   XYZ
    dof ry rz
    limits (-20.0 10.0)
           (0.0 20.0)
  end
  begin
     id 18 
     name lhumerus
     direction 1 -0.000130264 -9.81312e-005   
     length 5.19964   
     axis 180 -30 -90   XYZ
    dof rx ry rz
    limits (-60.0 90.0)
           (-90.0 90.0)
           (-90.0 90.0)
  end
  begin
     id 19
     name lradius
     direction 1 -4.48961e-011 1.43854e-026   
     length 3.32189   
     axis 180 -30 -90   XYZ
    dof rx
    limits (-10.0 170.0)
  end
  begin
     id 20
     name lwrist
     direction 1 -4.48958e-011 3.1502e-026   
     length 1.66095   
     axis -1.97692e-014 90 90   XYZ
    dof ry
    limits (-180.0 0.0)
 end
  begin
     id 21 
     name lhand
     direction 1 -4.48927e-011 6.3004e-026   
     length 0.645616   
     axis -4.02019e-014 90 90   XYZ
    dof rx rz
    limits (-90.0 90.0)
           (-45.0 45.0)
  end
  begin
     id 22 
     name lfingers
     direction 1 -4.4904e-011 1.26008e-025   
     length 0.520512   
     axis -8.04039e-014 90 90   XYZ
    dof rx
    limits (0.0 90.0)
  end
  begin
     id 23
     name lthumb
     direction 0.707107 -6.34947e-011 0.707107   
     length 0.747354   
     axis -90 45 2.85299e-015   XYZ
    dof rx rz
    limits (-45.0 45.0)
           (-45.0 45.0)
  end
  begin
     id 24 
     name rclavicle
     direction -0.909391 0.383475 -0.161107   
     length 3.25176  
     axis 0 0 0   XYZ 
    dof ry rz
    limits (-10.0 20.0)
           (-20.0 0.0)
  end
  begin
     id 25 
     name rhumerus
     direction -1 -4.48965e-011 -1.81384e-027  
     length 5.6595   
     axis 180 30 90   XYZ
    dof rx ry rz
    limits (-90.0 60.0)
           (-90.0 90.0)
           (-90.0 90.0)
  end
  begin
     id 26 
     name rradius
     direction -1 -4.48996e-011 -8.09397e-027   
     length 3.37604   
     axis 180 30 90   XYZ
    dof rx
    limits (-10.0 170.0)
  end
  begin
     id 27 
     name rwrist
     direction -1 -4.48927e-011 -1.56669e-026   
     length 1.68802   
     axis 1.21142e-014 -90 -90   XYZ
    dof ry
    limits (-180.0 0.0)
  end
  begin
     id 28
     name rhand
     direction -1 -4.48912e-011 -3.13339e-026   
     length 0.824702   
     axis 1.99937e-014 -90 -90   XYZ
    dof rx rz
    limits (-90.0 90.0)
           (-45.0 45.0)
  end
  begin
     id 29
     name rfingers
     direction -1 -4.49011e-011 -6.26677e-026   
     length 0.664896   
     axis 3.99874e-014 -90 -90   XYZ
    dof rx
    limits (0.0 90.0)
  end
  begin
     id 30
     name rthumb
     direction -0.707107 -6.34931e-011 0.707107   
     length 0.954662   
     axis -90 -45 -2.85299e-015   XYZ
    dof rx rz
    limits (-45.0 45.0)
           (-45.0 45.0)
  end
:hierarchy
  begin
    root lhipjoint rhipjoint lowerback
    lhipjoint lfemur
    lfemur ltibia
    ltibia lfoot
    lfoot ltoes
    rhipjoint rfemur
    rfemur rtibia
    rtibia rfoot
    rfoot rtoes
    lowerback upperback
    upperback thorax
    thorax lowerneck lclavicle rclavicle
    lowerneck upperneck
    upperneck head
    lclavicle lhumerus
    lhumerus lradius
    lradius lwrist
    lwrist lhand lthumb
    lhand lfingers
    rclavicle rhumerus
    rhumerus rradius
    rradius rwrist
    rwrist rhand rthumb
    rhand rfingers
  end

#!OML:ASF F:\VICON\USERDATA\INSTALL\rory3\rory3.ASF
:FULLY-SPECIFIED
:DEGREES
91
root 5.14314 16.6228 -17.8406 27.8783 -29.2517 -21.4377
lowerback 15.8288 1.43243 4.96252
upperback 0.340471 3.45624 8.65679
thorax -8.83872 1.61062 5.82728
lowerneck -16.5992 -3.71183 -9.90998
upperneck 21.3565 -5.69239 12.6586
head 10.206 -2.06276 5.403
rclavicle 3.06128e-014 1.14102e-013
rhumerus -21.2157 2.6613 -62.3662
rradius 82.4562
rwrist -7.97108
rhand -16.673 21.7403
rfingers 7.12502
rthumb 9.55087 -8.02323
lclavicle 3.06128e-014 1.14102e-013
lhumerus -19.7953 31.4277 26.8191
lradius 29.1678
lwrist -8.30771
lhand -4.53193 29.9908
lfingers 7.12502
lthumb 21.2431 58.8467
rfemur -14.096 -0.993667 28.5767
rtibia 47.1147
rfoot -20.4251 -1.67279
rtoes -20.0373
lfemur -64.1032 19.3754 -11.805
ltibia 94.9448
lfoot -11.9207 -2.64187
ltoes -1.64901
92
root 5.05905 16.7363 -17.4235 27.4895 -28.8226 -22.1128
lowerback 16.0511 1.54914 5.39847
upperback 0.319656 3.73709 8.92039
thorax -9.00245 1.72974 5.80871
lowerneck -16.3126 -3.94476 -9.92726
upperneck 21.7751 -6.10225 12.7043
head 10.3582 -2.25551 5.37975
rclavicle 2.15681e-014 -5.76476e-014
rhumerus -19.5821 2.16083 -62.05
rradius 81.6273
rwrist -6.68311
rhand -15.9963 22.841
rfingers 7.12502
rthumb 10.2037 -6.89151
lclavicle 2.15681e-014 -5.76476e-014
lhumerus -20.9803 31.7539 24.7591
lradius 29.0067
lwrist -7.74848
lhand -4.45758 30.7779
lfingers 7.12502
lthumb 21.3145 59.6257
rfemur -11.3548 -1.35848 28.5303
rtibia 44.9241
rfoot -16.1307 -0.327104
rtoes -21.0483
lfemur -65.0507 19.3469 -10.9996
ltibia 92.5756
lfoot -12.2822 -2.4528
ltoes -1.13734
93
root 4.97552 16.843 -16.9667 27.2148 -28.4128 -22.8538
lowerback 15.7047 1.68308 6.21136
upperback 0.324065 4.03592 9.15557
thorax -8.78642 1.84242 5.54131
lowerneck -15.4855 -4.29304 -10.2224
upperneck 21.8185 -6.6574 12.9393
head 10.3081 -2.53914 5.44262
rclavicle 5.15846e-014 4.37326e-014
rhumerus -20.241 4.17068 -60.6859
rradius 84.1658
rwrist -7.42071
rhand -16.3904 21.8649
rfingers 7.12502
rthumb 9.82353 -7.88592
lclavicle 5.15846e-014 4.37326e-014
lhumerus -22.178 31.7593 22.9221
lradius 28.8935
lwrist -7.43127
lhand -4.77549 31.5611
lfingers 7.12502
lthumb 21.0091 60.4431
rfemur -8.61258 -2.18122 28.2362
rtibia 42.5551
rfoot -11.1282 1.69685
rtoes -20.4386
lfemur -65.5699 19.2407 -10.2587
ltibia 90.0003
lfoot -13.0571 -1.80928
ltoes -2.46386
94
root 4.89376 16.9487 -16.5143 26.9658 -28.1219 -23.3346
lowerback 15.1989 2.856 7.65917
upperback 0.902099 5.62715 8.16179
thorax -7.69641 2.55128 3.27402
lowerneck -17.9989 -5.88219 -7.29371
upperneck 22.1112 -9.51659 12.6099
head 11.1447 -3.52759 4.35122
rclavicle 1.68967e-015 -6.7388e-014
rhumerus -21.199 1.08184 -59.8757
rradius 86.3974
rwrist -7.22246
rhand -16.5641 21.0376
rfingers 7.12502
rthumb 9.65596 -8.72105
lclavicle 1.68967e-015 -6.7388e-014
lhumerus -17.5136 32.6226 23.7919
lradius 28.2243
lwrist -7.69564
lhand -5.15681 33.0088
lfingers 7.12502
lthumb 20.6427 61.9311
rfemur -6.17653 -2.69074 27.6501
rtibia 40.1204
rfoot -5.01141 3.16608
rtoes -14.474
lfemur -66.1544 19.0793 -9.78732
ltibia 87.1675
lfoot -13.6526 -1.18897
ltoes -2.52522
95
root 4.80997 17.0443 -16.0656 26.7704 -27.7785 -23.8251
lowerback 14.1535 1.58948 7.0703
upperback 0.599628 3.85856 9.8601
thorax -7.59506 1.74787 5.89032
lowerneck -14.2832 -4.64155 -11.788
upperneck 22.2377 -7.03931 13.4187
head 10.3556 -2.83883 5.86572
rclavicle 5.06901e-014 -1.94809e-014
rhumerus -16.8082 4.76261 -59.2079
rradius 83.2093
rwrist -4.95731
rhand -15.137 22.8685
rfingers 7.12502
rthumb 11.0326 -6.82152
lclavicle 5.06901e-014 -1.94809e-014
lhumerus -26.6878 32.6271 18.0141
lradius 29.0864
lwrist -6.99613
lhand -5.50852 33.2472
lfingers 7.12502
lthumb 20.3048 62.2059
rfemur -3.95733 -3.06663 27.1034
rtibia 37.621
rfoot 2.12872 3.17049
rtoes -3.60859
lfemur -66.6938 18.9468 -9.26386
ltibia 84.1347
lfoot -13.9252 -0.699741
ltoes -2.14139
96
root 4.72239 17.1287 -15.6161 26.4764 -27.2314 -24.2567
lowerback 13.4853 1.8432 7.78543
upperback 0.85966 4.17261 9.84281
thorax -6.89777 1.8858 5.40622
lowerneck -14.8903 -5.33222 -11.6339
upperneck 22.7855 -8.14741 13.7135
head 10.8538 -3.27584 5.80444
rclavicle -6.40087e-014 -4.41302e-014
rhumerus -16.6291 4.96658 -58.0031
rradius 84.424
rwrist -4.653
rhand -15.4191 22.38
rfingers 7.12502
rthumb 10.7605 -7.32437
lclavicle -6.40087e-014 -4.41302e-014
lhumerus -26.7444 33.3212 16.4593
lradius 28.7386
lwrist -7.46201
lhand -6.19332 32.9875
lfingers 7.12502
lthumb 19.6465 62.0148
rfemur -1.75892 -3.39459 26.6104
rtibia 35.2023
rfoot 8.83744 1.74435
rtoes 6.55037
lfemur -67.0394 18.6935 -8.68541
ltibia 80.915
lfoot -14.12 -0.44741
ltoes -1.26282
97
root 4.63293 17.2093 -15.1615 25.9885 -26.82 -24.6843
lowerback 13.1247 1.97618 8.17303
upperback 0.958355 4.35002 10.0459
thorax -6.58406 1.9689 5.38621
lowerneck -13.991 -5.5619 -11.434
upperneck 22.4412 -8.51773 13.4942
head 10.5863 -3.48672 5.62465
rclavicle 4.57205e-015 4.81059e-014
rhumerus -17.3795 6.82972 -56.2596
rradius 86.7794
rwrist -5.23869
rhand -16.3708 21.29
rfingers 7.12502
rthumb 9.84242 -8.46001
lclavicle 4.57205e-015 4.81059e-014
lhumerus -27.7785 32.8366 14.7261
lradius 28.7819
lwrist -7.0125
lhand -6.92771 34.0999
lfingers 7.12502
lthumb 18.9403 63.1978
rfemur 0.714702 -3.4078 26.0668
rtibia 32.8814
rfoot 13.904 0.263614
rtoes 10.0332
lfemur -66.9381 18.4851 -8.08531
ltibia 77.4815
lfoot -14.4618 -0.18477
ltoes 0.190652
98
root 4.54325 17.2801 -14.6911 25.3808 -26.881 -25.1264
lowerback 13.0623 2.04945 8.04686
upperback 0.839904 4.46547 10.5116
thorax -6.73618 2.03389 5.9584
lowerneck -12.5887 -5.56669 -12.0219
upperneck 22.4653 -8.49139 13.3279
head 10.3333 -3.5966 5.68713
rclavicle -5.00937e-014 1.32391e-013
rhumerus -17.1563 8.54769 -54.8054
rradius 87.5525
rwrist -5.31857
rhand -16.8244 20.9168
rfingers 7.12502
rthumb 9.40482 -8.85334
lclavicle -5.00937e-014 1.32391e-013
lhumerus -30.1331 31.461 12.5865
lradius 29.1428
lwrist -6.00653
lhand -7.35131 35.9339
lfingers 7.12502
lthumb 18.5329 65.0711
rfemur 3.33915 -3.27095 25.1932
rtibia 31.0373
rfoot 17.3474 -0.161512
rtoes 15.2639
lfemur -66.3031 18.5599 -7.59815
ltibia 73.8483
lfoot -14.8925 0.425138
ltoes 0.146124
99
root 4.45676 17.342 -14.1996 24.6453 -27.1814 -25.6329
lowerback 13.5614 3.10972 8.86856
upperback 0.944816 6.02574 9.89555
thorax -6.82135 2.75732 4.50155
lowerneck -14.3476 -6.85808 -9.83809
upperneck 23.4807 -10.6816 12.746
head 11.2279 -4.38019 4.75259
rclavicle -3.04141e-014 3.53837e-014
rhumerus -18.4248 6.41256 -53.9223
rradius 88.3263
rwrist -5.25696
rhand -17.3537 20.725
rfingers 7.12502
rthumb 8.89408 -9.06755
lclavicle -3.04141e-014 3.53837e-014
lhumerus -27.1845 30.7083 12.8906
lradius 29.0383
lwrist -5.11586
lhand -7.56072 38.4879
lfingers 7.12502
lthumb 18.3315 67.6441
rfemur 6.26254 -2.97555 24.1659
rtibia 29.4468
rfoot 19.4382 -0.140623
rtoes 15.8719
lfemur -65.2135 18.6898 -6.96935
ltibia 70.1561
lfoot -15.2267 0.883295
ltoes -0.475792
100
root 4.37359 17.3941 -13.8263 24.0792 -25.0022 -25.1418
lowerback 13.0588 2.46077 8.8736
upperback 0.587611 5.17678 10.3829
thorax -6.9612 2.35108 5.22101
lowerneck -13.4597 -6.9423 -10.735
upperneck 23.6546 -10.7445 12.9806
head 11.1936 -4.49786 5.01062
rclavicle -5.30755e-014 7.55382e-014
rhumerus -17.8414 7.46428 -52.5924
rradius 88.7105
rwrist -5.26078
rhand -17.7755 20.8199
rfingers 7.12502
rthumb 8.487 -8.98954
lclavicle -5.30755e-014 7.55382e-014
lhumerus -28.5014 30.7803 10.7671
lradius 28.6073
lwrist -4.63884
lhand -7.99854 40.1583
lfingers 7.12502
lthumb 17.9102 69.3536
rfemur 8.20395 -3.7663 24.2671
rtibia 28.3556
rfoot 19.7601 -1.58685
rtoes 14.3154
lfemur -65.9477 17.1001 -6.80425
ltibia 66.161
lfoot -14.5125 0.450643
ltoes -1.76674
